<?xml version="1.0" encoding="UTF-8" standalone="no"?>
<!DOCTYPE svg PUBLIC "-//W3C//DTD SVG 1.1//EN"
 "http://www.w3.org/Graphics/SVG/1.1/DTD/svg11.dtd">
<!-- Generated by graphviz version 2.50.0 (20220117.0710)
 -->
<!-- Title: g Pages: 1 -->
<svg width="190pt" height="488pt"
 viewBox="0.00 0.00 190.04 488.00" xmlns="http://www.w3.org/2000/svg" xmlns:xlink="http://www.w3.org/1999/xlink">
<g id="graph0" class="graph" transform="scale(1 1) rotate(0) translate(4 484)">
<title>g</title>
<polygon fill="white" stroke="transparent" points="-4,4 -4,-484 186.04,-484 186.04,4 -4,4"/>
<!-- begin -->
<g id="node1" class="node">
<title>begin</title>
<path fill="#dddddd" stroke="black" d="M78,-480C78,-480 48,-480 48,-480 42,-480 36,-474 36,-468 36,-468 36,-456 36,-456 36,-450 42,-444 48,-444 48,-444 78,-444 78,-444 84,-444 90,-450 90,-456 90,-456 90,-468 90,-468 90,-474 84,-480 78,-480"/>
<text text-anchor="middle" x="63" y="-457.8" font-family="Times,serif" font-size="14.00">begin</text>
</g>
<!-- ready -->
<g id="node2" class="node">
<title>ready</title>
<path fill="none" stroke="black" d="M78,-391.2C78,-391.2 48,-391.2 48,-391.2 42,-391.2 36,-385.2 36,-379.2 36,-379.2 36,-367.2 36,-367.2 36,-361.2 42,-355.2 48,-355.2 48,-355.2 78,-355.2 78,-355.2 84,-355.2 90,-361.2 90,-367.2 90,-367.2 90,-379.2 90,-379.2 90,-385.2 84,-391.2 78,-391.2"/>
<text text-anchor="middle" x="63" y="-369" font-family="Times,serif" font-size="14.00">ready</text>
</g>
<!-- begin&#45;&gt;ready -->
<g id="edge1" class="edge">
<title>begin&#45;&gt;ready</title>
<path fill="none" stroke="black" d="M63,-443.85C63,-431.72 63,-415.22 63,-401.32"/>
<polygon fill="black" stroke="black" points="66.5,-401.31 63,-391.31 59.5,-401.31 66.5,-401.31"/>
<text text-anchor="middle" x="74.76" y="-413.4" font-family="Times,serif" font-size="14.00">1&#39;b1</text>
</g>
<!-- start -->
<g id="node3" class="node">
<title>start</title>
<path fill="none" stroke="black" d="M78,-302.4C78,-302.4 48,-302.4 48,-302.4 42,-302.4 36,-296.4 36,-290.4 36,-290.4 36,-278.4 36,-278.4 36,-272.4 42,-266.4 48,-266.4 48,-266.4 78,-266.4 78,-266.4 84,-266.4 90,-272.4 90,-278.4 90,-278.4 90,-290.4 90,-290.4 90,-296.4 84,-302.4 78,-302.4"/>
<text text-anchor="middle" x="63" y="-280.2" font-family="Times,serif" font-size="14.00">start</text>
</g>
<!-- ready&#45;&gt;start -->
<g id="edge2" class="edge">
<title>ready&#45;&gt;start</title>
<path fill="none" stroke="black" d="M63,-355.05C63,-342.92 63,-326.42 63,-312.52"/>
<polygon fill="black" stroke="black" points="66.5,-312.51 63,-302.51 59.5,-312.51 66.5,-312.51"/>
<text text-anchor="middle" x="72.71" y="-324.6" font-family="Times,serif" font-size="14.00">ena</text>
</g>
<!-- command -->
<g id="node4" class="node">
<title>command</title>
<path fill="none" stroke="black" d="M86.71,-213.6C86.71,-213.6 39.29,-213.6 39.29,-213.6 33.29,-213.6 27.29,-207.6 27.29,-201.6 27.29,-201.6 27.29,-189.6 27.29,-189.6 27.29,-183.6 33.29,-177.6 39.29,-177.6 39.29,-177.6 86.71,-177.6 86.71,-177.6 92.71,-177.6 98.71,-183.6 98.71,-189.6 98.71,-189.6 98.71,-201.6 98.71,-201.6 98.71,-207.6 92.71,-213.6 86.71,-213.6"/>
<text text-anchor="middle" x="63" y="-191.4" font-family="Times,serif" font-size="14.00">command</text>
</g>
<!-- start&#45;&gt;command -->
<g id="edge3" class="edge">
<title>start&#45;&gt;command</title>
<path fill="none" stroke="black" d="M63,-266.25C63,-254.12 63,-237.62 63,-223.72"/>
<polygon fill="black" stroke="black" points="66.5,-223.71 63,-213.71 59.5,-223.71 66.5,-223.71"/>
<text text-anchor="middle" x="74.76" y="-235.8" font-family="Times,serif" font-size="14.00">1&#39;b1</text>
</g>
<!-- command&#45;&gt;command -->
<g id="edge5" class="edge">
<title>command&#45;&gt;command</title>
<path fill="none" stroke="black" d="M98.82,-203.81C108.88,-203.45 116.6,-200.71 116.6,-195.6 116.6,-192.4 113.59,-190.14 108.87,-188.8"/>
<polygon fill="black" stroke="black" points="109.21,-185.31 98.82,-187.39 108.24,-192.24 109.21,-185.31"/>
<text text-anchor="middle" x="149.32" y="-191.4" font-family="Times,serif" font-size="14.00">bit_cnt != 0</text>
</g>
<!-- slv_ack1 -->
<g id="node5" class="node">
<title>slv_ack1</title>
<path fill="none" stroke="black" d="M83.77,-124.8C83.77,-124.8 42.23,-124.8 42.23,-124.8 36.23,-124.8 30.23,-118.8 30.23,-112.8 30.23,-112.8 30.23,-100.8 30.23,-100.8 30.23,-94.8 36.23,-88.8 42.23,-88.8 42.23,-88.8 83.77,-88.8 83.77,-88.8 89.77,-88.8 95.77,-94.8 95.77,-100.8 95.77,-100.8 95.77,-112.8 95.77,-112.8 95.77,-118.8 89.77,-124.8 83.77,-124.8"/>
<text text-anchor="middle" x="63" y="-102.6" font-family="Times,serif" font-size="14.00">slv_ack1</text>
</g>
<!-- command&#45;&gt;slv_ack1 -->
<g id="edge4" class="edge">
<title>command&#45;&gt;slv_ack1</title>
<path fill="none" stroke="black" d="M63,-177.45C63,-165.32 63,-148.82 63,-134.92"/>
<polygon fill="black" stroke="black" points="66.5,-134.91 63,-124.91 59.5,-134.91 66.5,-134.91"/>
<text text-anchor="middle" x="97.34" y="-147" font-family="Times,serif" font-size="14.00">bit_cnt == 0</text>
</g>
<!-- wr -->
<g id="node6" class="node">
<title>wr</title>
<path fill="none" stroke="black" d="M42,-36C42,-36 12,-36 12,-36 6,-36 0,-30 0,-24 0,-24 0,-12 0,-12 0,-6 6,0 12,0 12,0 42,0 42,0 48,0 54,-6 54,-12 54,-12 54,-24 54,-24 54,-30 48,-36 42,-36"/>
<text text-anchor="middle" x="27" y="-13.8" font-family="Times,serif" font-size="14.00">wr</text>
</g>
<!-- slv_ack1&#45;&gt;wr -->
<g id="edge6" class="edge">
<title>slv_ack1&#45;&gt;wr</title>
<path fill="none" stroke="black" d="M44.45,-88.77C39.77,-83.48 35.27,-77.31 32.44,-70.8 29.17,-63.31 27.53,-54.65 26.78,-46.58"/>
<polygon fill="black" stroke="black" points="30.27,-46.26 26.24,-36.46 23.28,-46.63 30.27,-46.26"/>
<text text-anchor="middle" x="54.28" y="-58.2" font-family="Times,serif" font-size="14.00">rw == 0</text>
</g>
<!-- rd -->
<g id="node7" class="node">
<title>rd</title>
<path fill="none" stroke="black" d="M114,-36C114,-36 84,-36 84,-36 78,-36 72,-30 72,-24 72,-24 72,-12 72,-12 72,-6 78,0 84,0 84,0 114,0 114,0 120,0 126,-6 126,-12 126,-12 126,-24 126,-24 126,-30 120,-36 114,-36"/>
<text text-anchor="middle" x="99" y="-13.8" font-family="Times,serif" font-size="14.00">rd</text>
</g>
<!-- slv_ack1&#45;&gt;rd -->
<g id="edge7" class="edge">
<title>slv_ack1&#45;&gt;rd</title>
<path fill="none" stroke="black" d="M70.11,-88.65C75.19,-76.41 82.12,-59.69 87.92,-45.71"/>
<polygon fill="black" stroke="black" points="91.3,-46.69 91.9,-36.11 84.84,-44.01 91.3,-46.69"/>
<text text-anchor="middle" x="106.28" y="-58.2" font-family="Times,serif" font-size="14.00">rw == 1</text>
</g>
</g>
</svg>
