<?xml version="1.0" encoding="UTF-8" standalone="no"?>
<!DOCTYPE svg PUBLIC "-//W3C//DTD SVG 1.1//EN"
 "http://www.w3.org/Graphics/SVG/1.1/DTD/svg11.dtd">
<!-- Generated by graphviz version 2.50.0 (20220206.1658)
 -->
<!-- Title: g Pages: 1 -->
<svg width="184pt" height="488pt"
 viewBox="0.00 0.00 183.58 488.00" xmlns="http://www.w3.org/2000/svg" xmlns:xlink="http://www.w3.org/1999/xlink">
<g id="graph0" class="graph" transform="scale(1 1) rotate(0) translate(4 484)">
<title>g</title>
<polygon fill="white" stroke="transparent" points="-4,4 -4,-484 179.58,-484 179.58,4 -4,4"/>
<!-- begin -->
<g id="node1" class="node">
<title>begin</title>
<path fill="#dddddd" stroke="black" d="M81,-480C81,-480 51,-480 51,-480 45,-480 39,-474 39,-468 39,-468 39,-456 39,-456 39,-450 45,-444 51,-444 51,-444 81,-444 81,-444 87,-444 93,-450 93,-456 93,-456 93,-468 93,-468 93,-474 87,-480 81,-480"/>
<text text-anchor="middle" x="66" y="-457.8" font-family="Times,serif" font-size="14.00">begin</text>
</g>
<!-- ready -->
<g id="node2" class="node">
<title>ready</title>
<path fill="none" stroke="black" d="M81,-391.2C81,-391.2 51,-391.2 51,-391.2 45,-391.2 39,-385.2 39,-379.2 39,-379.2 39,-367.2 39,-367.2 39,-361.2 45,-355.2 51,-355.2 51,-355.2 81,-355.2 81,-355.2 87,-355.2 93,-361.2 93,-367.2 93,-367.2 93,-379.2 93,-379.2 93,-385.2 87,-391.2 81,-391.2"/>
<text text-anchor="middle" x="66" y="-369" font-family="Times,serif" font-size="14.00">ready</text>
</g>
<!-- begin&#45;&gt;ready -->
<g id="edge1" class="edge">
<title>begin&#45;&gt;ready</title>
<path fill="none" stroke="black" d="M66,-443.85C66,-431.72 66,-415.22 66,-401.32"/>
<polygon fill="black" stroke="black" points="69.5,-401.31 66,-391.31 62.5,-401.31 69.5,-401.31"/>
<text text-anchor="middle" x="93.99" y="-413.4" font-family="Times,serif" font-size="14.00">undefined</text>
</g>
<!-- start -->
<g id="node3" class="node">
<title>start</title>
<path fill="none" stroke="black" d="M81,-302.4C81,-302.4 51,-302.4 51,-302.4 45,-302.4 39,-296.4 39,-290.4 39,-290.4 39,-278.4 39,-278.4 39,-272.4 45,-266.4 51,-266.4 51,-266.4 81,-266.4 81,-266.4 87,-266.4 93,-272.4 93,-278.4 93,-278.4 93,-290.4 93,-290.4 93,-296.4 87,-302.4 81,-302.4"/>
<text text-anchor="middle" x="66" y="-280.2" font-family="Times,serif" font-size="14.00">start</text>
</g>
<!-- ready&#45;&gt;start -->
<g id="edge2" class="edge">
<title>ready&#45;&gt;start</title>
<path fill="none" stroke="black" d="M66,-355.05C66,-342.92 66,-326.42 66,-312.52"/>
<polygon fill="black" stroke="black" points="69.5,-312.51 66,-302.51 62.5,-312.51 69.5,-312.51"/>
<text text-anchor="middle" x="75.71" y="-324.6" font-family="Times,serif" font-size="14.00">ena</text>
</g>
<!-- command -->
<g id="node4" class="node">
<title>command</title>
<path fill="none" stroke="black" d="M89.71,-213.6C89.71,-213.6 42.29,-213.6 42.29,-213.6 36.29,-213.6 30.29,-207.6 30.29,-201.6 30.29,-201.6 30.29,-189.6 30.29,-189.6 30.29,-183.6 36.29,-177.6 42.29,-177.6 42.29,-177.6 89.71,-177.6 89.71,-177.6 95.71,-177.6 101.71,-183.6 101.71,-189.6 101.71,-189.6 101.71,-201.6 101.71,-201.6 101.71,-207.6 95.71,-213.6 89.71,-213.6"/>
<text text-anchor="middle" x="66" y="-191.4" font-family="Times,serif" font-size="14.00">command</text>
</g>
<!-- start&#45;&gt;command -->
<g id="edge3" class="edge">
<title>start&#45;&gt;command</title>
<path fill="none" stroke="black" d="M66,-266.25C66,-254.12 66,-237.62 66,-223.72"/>
<polygon fill="black" stroke="black" points="69.5,-223.71 66,-213.71 62.5,-223.71 69.5,-223.71"/>
<text text-anchor="middle" x="77.76" y="-235.8" font-family="Times,serif" font-size="14.00">1&#39;b1</text>
</g>
<!-- command&#45;&gt;command -->
<g id="edge5" class="edge">
<title>command&#45;&gt;command</title>
<path fill="none" stroke="black" d="M101.82,-203.81C111.88,-203.45 119.6,-200.71 119.6,-195.6 119.6,-192.4 116.59,-190.14 111.87,-188.8"/>
<polygon fill="black" stroke="black" points="112.21,-185.31 101.82,-187.39 111.24,-192.24 112.21,-185.31"/>
<text text-anchor="middle" x="147.59" y="-191.4" font-family="Times,serif" font-size="14.00">undefined</text>
</g>
<!-- slv_ack1 -->
<g id="node5" class="node">
<title>slv_ack1</title>
<path fill="none" stroke="black" d="M86.77,-124.8C86.77,-124.8 45.23,-124.8 45.23,-124.8 39.23,-124.8 33.23,-118.8 33.23,-112.8 33.23,-112.8 33.23,-100.8 33.23,-100.8 33.23,-94.8 39.23,-88.8 45.23,-88.8 45.23,-88.8 86.77,-88.8 86.77,-88.8 92.77,-88.8 98.77,-94.8 98.77,-100.8 98.77,-100.8 98.77,-112.8 98.77,-112.8 98.77,-118.8 92.77,-124.8 86.77,-124.8"/>
<text text-anchor="middle" x="66" y="-102.6" font-family="Times,serif" font-size="14.00">slv_ack1</text>
</g>
<!-- command&#45;&gt;slv_ack1 -->
<g id="edge4" class="edge">
<title>command&#45;&gt;slv_ack1</title>
<path fill="none" stroke="black" d="M66,-177.45C66,-165.32 66,-148.82 66,-134.92"/>
<polygon fill="black" stroke="black" points="69.5,-134.91 66,-124.91 62.5,-134.91 69.5,-134.91"/>
<text text-anchor="middle" x="93.99" y="-147" font-family="Times,serif" font-size="14.00">undefined</text>
</g>
<!-- wr -->
<g id="node6" class="node">
<title>wr</title>
<path fill="none" stroke="black" d="M42,-36C42,-36 12,-36 12,-36 6,-36 0,-30 0,-24 0,-24 0,-12 0,-12 0,-6 6,0 12,0 12,0 42,0 42,0 48,0 54,-6 54,-12 54,-12 54,-24 54,-24 54,-30 48,-36 42,-36"/>
<text text-anchor="middle" x="27" y="-13.8" font-family="Times,serif" font-size="14.00">wr</text>
</g>
<!-- slv_ack1&#45;&gt;wr -->
<g id="edge6" class="edge">
<title>slv_ack1&#45;&gt;wr</title>
<path fill="none" stroke="black" d="M41.4,-88.56C36.02,-83.51 31.04,-77.5 28.02,-70.8 24.63,-63.27 23.54,-54.48 23.54,-46.31"/>
<polygon fill="black" stroke="black" points="27.05,-46.23 24.06,-36.07 20.06,-45.88 27.05,-46.23"/>
<text text-anchor="middle" x="56.99" y="-58.2" font-family="Times,serif" font-size="14.00">undefined</text>
</g>
<!-- rd -->
<g id="node7" class="node">
<title>rd</title>
<path fill="none" stroke="black" d="M121,-36C121,-36 91,-36 91,-36 85,-36 79,-30 79,-24 79,-24 79,-12 79,-12 79,-6 85,0 91,0 91,0 121,0 121,0 127,0 133,-6 133,-12 133,-12 133,-24 133,-24 133,-30 127,-36 121,-36"/>
<text text-anchor="middle" x="106" y="-13.8" font-family="Times,serif" font-size="14.00">rd</text>
</g>
<!-- slv_ack1&#45;&gt;rd -->
<g id="edge7" class="edge">
<title>slv_ack1&#45;&gt;rd</title>
<path fill="none" stroke="black" d="M75.23,-88.48C78.12,-82.88 81.27,-76.62 84,-70.8 87.77,-62.75 91.64,-53.88 95.07,-45.78"/>
<polygon fill="black" stroke="black" points="98.36,-46.98 98.98,-36.41 91.9,-44.29 98.36,-46.98"/>
<text text-anchor="middle" x="117.99" y="-58.2" font-family="Times,serif" font-size="14.00">undefined</text>
</g>
</g>
</svg>
