<?xml version="1.0" encoding="UTF-8" standalone="no"?>
<!DOCTYPE svg PUBLIC "-//W3C//DTD SVG 1.1//EN"
 "http://www.w3.org/Graphics/SVG/1.1/DTD/svg11.dtd">
<!-- Generated by graphviz version 2.50.0 (20211209.1537)
 -->
<!-- Title: g Pages: 1 -->
<svg width="247pt" height="235pt"
 viewBox="0.00 0.00 246.91 234.72" xmlns="http://www.w3.org/2000/svg" xmlns:xlink="http://www.w3.org/1999/xlink">
<g id="graph0" class="graph" transform="scale(1 1) rotate(0) translate(4 230.72)">
<title>g</title>
<polygon fill="white" stroke="transparent" points="-4,4 -4,-230.72 242.91,-230.72 242.91,4 -4,4"/>
<!-- s00 -->
<g id="node1" class="node">
<title>s00</title>
<path fill="none" stroke="black" d="M157.63,-36C157.63,-36 127.63,-36 127.63,-36 121.63,-36 115.63,-30 115.63,-24 115.63,-24 115.63,-12 115.63,-12 115.63,-6 121.63,0 127.63,0 127.63,0 157.63,0 157.63,0 163.63,0 169.63,-6 169.63,-12 169.63,-12 169.63,-24 169.63,-24 169.63,-30 163.63,-36 157.63,-36"/>
<text text-anchor="middle" x="142.63" y="-13.8" font-family="Times,serif" font-size="14.00">s00</text>
</g>
<!-- s01 -->
<g id="node2" class="node">
<title>s01</title>
<path fill="none" stroke="black" d="M45.52,-72.42C45.52,-72.42 15.52,-72.42 15.52,-72.42 9.52,-72.42 3.52,-66.42 3.52,-60.42 3.52,-60.42 3.52,-48.42 3.52,-48.42 3.52,-42.42 9.52,-36.42 15.52,-36.42 15.52,-36.42 45.52,-36.42 45.52,-36.42 51.52,-36.42 57.52,-42.42 57.52,-48.42 57.52,-48.42 57.52,-60.42 57.52,-60.42 57.52,-66.42 51.52,-72.42 45.52,-72.42"/>
<text text-anchor="middle" x="30.52" y="-50.22" font-family="Times,serif" font-size="14.00">s01</text>
</g>
<!-- s00&#45;&gt;s01 -->
<g id="edge1" class="edge">
<title>s00&#45;&gt;s01</title>
<path fill="none" stroke="black" d="M115.41,-20.79C100.86,-24.44 82.76,-30.08 67.01,-35.79"/>
<polygon fill="black" stroke="black" points="65.7,-32.55 57.57,-39.34 68.16,-39.1 65.7,-32.55"/>
<text text-anchor="middle" x="75.95" y="-15.69" font-family="Times,serif" font-size="14.00">2&#39;b01</text>
</g>
<!-- s10 -->
<g id="node4" class="node">
<title>s10</title>
<path fill="none" stroke="black" d="M226.91,-131.36C226.91,-131.36 196.91,-131.36 196.91,-131.36 190.91,-131.36 184.91,-125.36 184.91,-119.36 184.91,-119.36 184.91,-107.36 184.91,-107.36 184.91,-101.36 190.91,-95.36 196.91,-95.36 196.91,-95.36 226.91,-95.36 226.91,-95.36 232.91,-95.36 238.91,-101.36 238.91,-107.36 238.91,-107.36 238.91,-119.36 238.91,-119.36 238.91,-125.36 232.91,-131.36 226.91,-131.36"/>
<text text-anchor="middle" x="211.91" y="-109.16" font-family="Times,serif" font-size="14.00">s10</text>
</g>
<!-- s00&#45;&gt;s10 -->
<g id="edge2" class="edge">
<title>s00&#45;&gt;s10</title>
<path fill="none" stroke="black" d="M149.62,-36.33C158.06,-50.75 172.23,-70.94 184.99,-87.06"/>
<polygon fill="black" stroke="black" points="182.47,-89.51 191.49,-95.07 187.91,-85.1 182.47,-89.51"/>
<text text-anchor="middle" x="152.04" y="-65.89" font-family="Times,serif" font-size="14.00">2&#39;b10</text>
</g>
<!-- err -->
<g id="node5" class="node">
<title>err</title>
<path fill="none" stroke="black" d="M45.52,-190.3C45.52,-190.3 15.52,-190.3 15.52,-190.3 9.52,-190.3 3.52,-184.3 3.52,-178.3 3.52,-178.3 3.52,-166.3 3.52,-166.3 3.52,-160.3 9.52,-154.3 15.52,-154.3 15.52,-154.3 45.52,-154.3 45.52,-154.3 51.52,-154.3 57.52,-160.3 57.52,-166.3 57.52,-166.3 57.52,-178.3 57.52,-178.3 57.52,-184.3 51.52,-190.3 45.52,-190.3"/>
<text text-anchor="middle" x="30.52" y="-168.1" font-family="Times,serif" font-size="14.00">err</text>
</g>
<!-- s00&#45;&gt;err -->
<g id="edge3" class="edge">
<title>s00&#45;&gt;err</title>
<path fill="none" stroke="black" d="M129.55,-36C109.91,-63.03 72.68,-114.27 49.89,-145.65"/>
<polygon fill="black" stroke="black" points="46.91,-143.78 43.87,-153.93 52.58,-147.9 46.91,-143.78"/>
<text text-anchor="middle" x="74.45" y="-95.02" font-family="Times,serif" font-size="14.00">2&#39;b11</text>
</g>
<!-- s01&#45;&gt;s00 -->
<g id="edge5" class="edge">
<title>s01&#45;&gt;s00</title>
<path fill="none" stroke="black" d="M57.74,-51.64C72.29,-47.99 90.39,-42.35 106.13,-36.63"/>
<polygon fill="black" stroke="black" points="107.45,-39.88 115.58,-33.08 104.99,-33.33 107.45,-39.88"/>
<text text-anchor="middle" x="97.2" y="-48.34" font-family="Times,serif" font-size="14.00">2&#39;b00</text>
</g>
<!-- s11 -->
<g id="node3" class="node">
<title>s11</title>
<path fill="none" stroke="black" d="M157.63,-226.72C157.63,-226.72 127.63,-226.72 127.63,-226.72 121.63,-226.72 115.63,-220.72 115.63,-214.72 115.63,-214.72 115.63,-202.72 115.63,-202.72 115.63,-196.72 121.63,-190.72 127.63,-190.72 127.63,-190.72 157.63,-190.72 157.63,-190.72 163.63,-190.72 169.63,-196.72 169.63,-202.72 169.63,-202.72 169.63,-214.72 169.63,-214.72 169.63,-220.72 163.63,-226.72 157.63,-226.72"/>
<text text-anchor="middle" x="142.63" y="-204.52" font-family="Times,serif" font-size="14.00">s11</text>
</g>
<!-- s01&#45;&gt;s11 -->
<g id="edge4" class="edge">
<title>s01&#45;&gt;s11</title>
<path fill="none" stroke="black" d="M38.43,-72.58C54.72,-99.86 91.64,-151.32 116.94,-182.61"/>
<polygon fill="black" stroke="black" points="114.37,-184.99 123.43,-190.48 119.77,-180.54 114.37,-184.99"/>
<text text-anchor="middle" x="62.42" y="-131.8" font-family="Times,serif" font-size="14.00">2&#39;b11</text>
</g>
<!-- s01&#45;&gt;err -->
<g id="edge6" class="edge">
<title>s01&#45;&gt;err</title>
<path fill="none" stroke="black" d="M30.52,-72.58C30.52,-91.56 30.52,-121.61 30.52,-143.76"/>
<polygon fill="black" stroke="black" points="27.02,-143.92 30.52,-153.92 34.02,-143.92 27.02,-143.92"/>
<text text-anchor="middle" x="15.26" y="-112.37" font-family="Times,serif" font-size="14.00">2&#39;b10</text>
</g>
<!-- s11&#45;&gt;s01 -->
<g id="edge8" class="edge">
<title>s11&#45;&gt;s01</title>
<path fill="none" stroke="black" d="M134.72,-190.56C118.43,-163.29 81.51,-111.82 56.2,-80.54"/>
<polygon fill="black" stroke="black" points="58.78,-78.16 49.72,-72.66 53.38,-82.61 58.78,-78.16"/>
<text text-anchor="middle" x="110.72" y="-139.75" font-family="Times,serif" font-size="14.00">2&#39;b01</text>
</g>
<!-- s11&#45;&gt;s10 -->
<g id="edge7" class="edge">
<title>s11&#45;&gt;s10</title>
<path fill="none" stroke="black" d="M163.01,-190.47C174.91,-176.24 189.42,-156.35 199.64,-140.3"/>
<polygon fill="black" stroke="black" points="202.87,-141.73 205.1,-131.37 196.9,-138.08 202.87,-141.73"/>
<text text-anchor="middle" x="166.06" y="-169.59" font-family="Times,serif" font-size="14.00">2&#39;b10</text>
</g>
<!-- s11&#45;&gt;err -->
<g id="edge9" class="edge">
<title>s11&#45;&gt;err</title>
<path fill="none" stroke="black" d="M115.49,-199.9C101.14,-195.24 83.3,-189.44 67.68,-184.37"/>
<polygon fill="black" stroke="black" points="68.39,-180.92 57.8,-181.16 66.23,-187.58 68.39,-180.92"/>
<text text-anchor="middle" x="76.32" y="-196.34" font-family="Times,serif" font-size="14.00">2&#39;b00</text>
</g>
<!-- s10&#45;&gt;s00 -->
<g id="edge10" class="edge">
<title>s10&#45;&gt;s00</title>
<path fill="none" stroke="black" d="M204.91,-95.03C196.48,-80.61 182.3,-60.42 169.55,-44.3"/>
<polygon fill="black" stroke="black" points="172.06,-41.85 163.04,-36.29 166.63,-46.26 172.06,-41.85"/>
<text text-anchor="middle" x="202.49" y="-73.87" font-family="Times,serif" font-size="14.00">2&#39;b00</text>
</g>
<!-- s10&#45;&gt;s11 -->
<g id="edge11" class="edge">
<title>s10&#45;&gt;s11</title>
<path fill="none" stroke="black" d="M191.53,-131.61C179.62,-145.84 165.11,-165.73 154.9,-181.78"/>
<polygon fill="black" stroke="black" points="151.67,-180.35 149.43,-190.71 157.64,-184.01 151.67,-180.35"/>
<text text-anchor="middle" x="157.95" y="-144.1" font-family="Times,serif" font-size="14.00">2&#39;b11</text>
</g>
<!-- s10&#45;&gt;err -->
<g id="edge12" class="edge">
<title>s10&#45;&gt;err</title>
<path fill="none" stroke="black" d="M184.75,-122.18C153.54,-132.33 102.15,-149.02 67.35,-160.33"/>
<polygon fill="black" stroke="black" points="66,-157.09 57.57,-163.51 68.16,-163.75 66,-157.09"/>
<text text-anchor="middle" x="141.31" y="-128.66" font-family="Times,serif" font-size="14.00">2&#39;b01</text>
</g>
</g>
</svg>
