<?xml version="1.0" encoding="UTF-8" standalone="no"?>
<!DOCTYPE svg PUBLIC "-//W3C//DTD SVG 1.1//EN"
 "http://www.w3.org/Graphics/SVG/1.1/DTD/svg11.dtd">
<!-- Generated by graphviz version 2.50.0 (20220206.1658)
 -->
<!-- Title: g Pages: 1 -->
<svg width="341pt" height="488pt"
 viewBox="0.00 0.00 340.52 488.00" xmlns="http://www.w3.org/2000/svg" xmlns:xlink="http://www.w3.org/1999/xlink">
<g id="graph0" class="graph" transform="scale(1 1) rotate(0) translate(4 484)">
<title>g</title>
<polygon fill="white" stroke="transparent" points="-4,4 -4,-484 336.52,-484 336.52,4 -4,4"/>
<!-- start -->
<g id="node1" class="node">
<title>start</title>
<path fill="none" stroke="black" d="M265,-480C265,-480 235,-480 235,-480 229,-480 223,-474 223,-468 223,-468 223,-456 223,-456 223,-450 229,-444 235,-444 235,-444 265,-444 265,-444 271,-444 277,-450 277,-456 277,-456 277,-468 277,-468 277,-474 271,-480 265,-480"/>
<text text-anchor="middle" x="250" y="-457.8" font-family="Times,serif" font-size="14.00">start</text>
</g>
<!-- s00 -->
<g id="node2" class="node">
<title>s00</title>
<path fill="none" stroke="black" d="M166,-391.2C166,-391.2 136,-391.2 136,-391.2 130,-391.2 124,-385.2 124,-379.2 124,-379.2 124,-367.2 124,-367.2 124,-361.2 130,-355.2 136,-355.2 136,-355.2 166,-355.2 166,-355.2 172,-355.2 178,-361.2 178,-367.2 178,-367.2 178,-379.2 178,-379.2 178,-385.2 172,-391.2 166,-391.2"/>
<text text-anchor="middle" x="151" y="-369" font-family="Times,serif" font-size="14.00">s00</text>
</g>
<!-- start&#45;&gt;s00 -->
<g id="edge1" class="edge">
<title>start&#45;&gt;s00</title>
<path fill="none" stroke="black" d="M230.44,-443.85C215.53,-430.77 194.8,-412.6 178.26,-398.1"/>
<polygon fill="black" stroke="black" points="180.35,-395.27 170.52,-391.31 175.73,-400.54 180.35,-395.27"/>
<text text-anchor="middle" x="224.26" y="-413.4" font-family="Times,serif" font-size="14.00">2&#39;b00</text>
</g>
<!-- s01 -->
<g id="node3" class="node">
<title>s01</title>
<path fill="none" stroke="black" d="M260,-302.4C260,-302.4 230,-302.4 230,-302.4 224,-302.4 218,-296.4 218,-290.4 218,-290.4 218,-278.4 218,-278.4 218,-272.4 224,-266.4 230,-266.4 230,-266.4 260,-266.4 260,-266.4 266,-266.4 272,-272.4 272,-278.4 272,-278.4 272,-290.4 272,-290.4 272,-296.4 266,-302.4 260,-302.4"/>
<text text-anchor="middle" x="245" y="-280.2" font-family="Times,serif" font-size="14.00">s01</text>
</g>
<!-- start&#45;&gt;s01 -->
<g id="edge2" class="edge">
<title>start&#45;&gt;s01</title>
<path fill="none" stroke="black" d="M250.79,-443.66C251.82,-417.08 253.15,-364.71 250,-320.4 249.82,-317.83 249.56,-315.16 249.26,-312.49"/>
<polygon fill="black" stroke="black" points="252.71,-311.89 247.93,-302.44 245.77,-312.81 252.71,-311.89"/>
<text text-anchor="middle" x="266.26" y="-369" font-family="Times,serif" font-size="14.00">2&#39;b01</text>
</g>
<!-- s11 -->
<g id="node4" class="node">
<title>s11</title>
<path fill="none" stroke="black" d="M264,-213.6C264,-213.6 234,-213.6 234,-213.6 228,-213.6 222,-207.6 222,-201.6 222,-201.6 222,-189.6 222,-189.6 222,-183.6 228,-177.6 234,-177.6 234,-177.6 264,-177.6 264,-177.6 270,-177.6 276,-183.6 276,-189.6 276,-189.6 276,-201.6 276,-201.6 276,-207.6 270,-213.6 264,-213.6"/>
<text text-anchor="middle" x="249" y="-191.4" font-family="Times,serif" font-size="14.00">s11</text>
</g>
<!-- start&#45;&gt;s11 -->
<g id="edge3" class="edge">
<title>start&#45;&gt;s11</title>
<path fill="none" stroke="black" d="M261.81,-443.85C270.41,-430.25 281.34,-410.41 286,-391.2 294.34,-356.83 304.8,-286.43 282,-231.6 280.53,-228.08 278.54,-224.7 276.26,-221.52"/>
<polygon fill="black" stroke="black" points="278.77,-219.07 269.68,-213.63 273.39,-223.55 278.77,-219.07"/>
<text text-anchor="middle" x="310.26" y="-324.6" font-family="Times,serif" font-size="14.00">2&#39;b11</text>
</g>
<!-- s10 -->
<g id="node5" class="node">
<title>s10</title>
<path fill="none" stroke="black" d="M182,-124.8C182,-124.8 152,-124.8 152,-124.8 146,-124.8 140,-118.8 140,-112.8 140,-112.8 140,-100.8 140,-100.8 140,-94.8 146,-88.8 152,-88.8 152,-88.8 182,-88.8 182,-88.8 188,-88.8 194,-94.8 194,-100.8 194,-100.8 194,-112.8 194,-112.8 194,-118.8 188,-124.8 182,-124.8"/>
<text text-anchor="middle" x="167" y="-102.6" font-family="Times,serif" font-size="14.00">s10</text>
</g>
<!-- start&#45;&gt;s10 -->
<g id="edge4" class="edge">
<title>start&#45;&gt;s10</title>
<path fill="none" stroke="black" d="M222.77,-457.44C157.98,-448.22 0,-420.95 0,-374.2 0,-374.2 0,-374.2 0,-239 0,-209.7 4.14,-199.14 24,-177.6 52.64,-146.53 98.1,-127.67 130.06,-117.52"/>
<polygon fill="black" stroke="black" points="131.37,-120.78 139.92,-114.53 129.34,-114.08 131.37,-120.78"/>
<text text-anchor="middle" x="15.26" y="-280.2" font-family="Times,serif" font-size="14.00">2&#39;b10</text>
</g>
<!-- s00&#45;&gt;s01 -->
<g id="edge5" class="edge">
<title>s00&#45;&gt;s01</title>
<path fill="none" stroke="black" d="M153.6,-355.05C156.06,-344.01 160.72,-329.99 169.48,-320.4 179.75,-309.15 194.36,-301.23 208.01,-295.8"/>
<polygon fill="black" stroke="black" points="209.49,-298.99 217.69,-292.28 207.1,-292.41 209.49,-298.99"/>
<text text-anchor="middle" x="184.26" y="-324.6" font-family="Times,serif" font-size="14.00">2&#39;b01</text>
</g>
<!-- s00&#45;&gt;s10 -->
<g id="edge6" class="edge">
<title>s00&#45;&gt;s10</title>
<path fill="none" stroke="black" d="M133.39,-354.84C128.8,-349.54 124.24,-343.45 121,-337.2 98.9,-294.6 88.72,-278.59 98.48,-231.6 107.22,-189.48 114.19,-179.27 137,-142.8 139.14,-139.39 141.59,-135.96 144.16,-132.66"/>
<polygon fill="black" stroke="black" points="146.98,-134.74 150.65,-124.8 141.58,-130.29 146.98,-134.74"/>
<text text-anchor="middle" x="114.26" y="-235.8" font-family="Times,serif" font-size="14.00">2&#39;b10</text>
</g>
<!-- error -->
<g id="node6" class="node">
<title>error</title>
<path fill="none" stroke="black" d="M281,-36C281,-36 251,-36 251,-36 245,-36 239,-30 239,-24 239,-24 239,-12 239,-12 239,-6 245,0 251,0 251,0 281,0 281,0 287,0 293,-6 293,-12 293,-12 293,-24 293,-24 293,-30 287,-36 281,-36"/>
<text text-anchor="middle" x="266" y="-13.8" font-family="Times,serif" font-size="14.00">error</text>
</g>
<!-- s00&#45;&gt;error -->
<g id="edge7" class="edge">
<title>s00&#45;&gt;error</title>
<path fill="none" stroke="black" d="M127.23,-355.18C120.83,-349.88 114.23,-343.71 109,-337.2 63.17,-280.14 46.38,-247.37 68.48,-177.6 83.05,-131.59 94.62,-120.53 131,-88.8 160.3,-63.25 200.59,-43.98 229.52,-32.24"/>
<polygon fill="black" stroke="black" points="230.85,-35.48 238.86,-28.54 228.27,-28.97 230.85,-35.48"/>
<text text-anchor="middle" x="84.26" y="-191.4" font-family="Times,serif" font-size="14.00">2&#39;b11</text>
</g>
<!-- s01&#45;&gt;s00 -->
<g id="edge9" class="edge">
<title>s01&#45;&gt;s00</title>
<path fill="none" stroke="black" d="M231.74,-302.64C223.24,-313.18 211.63,-326.62 200,-337.2 195.54,-341.25 190.6,-345.26 185.63,-349.03"/>
<polygon fill="black" stroke="black" points="183.31,-346.39 177.31,-355.12 187.45,-352.04 183.31,-346.39"/>
<text text-anchor="middle" x="230.26" y="-324.6" font-family="Times,serif" font-size="14.00">2&#39;b00</text>
</g>
<!-- s01&#45;&gt;s11 -->
<g id="edge8" class="edge">
<title>s01&#45;&gt;s11</title>
<path fill="none" stroke="black" d="M224.91,-266.36C215.91,-256.58 208.36,-243.84 213.48,-231.6 215.01,-227.93 217.14,-224.45 219.6,-221.21"/>
<polygon fill="black" stroke="black" points="222.25,-223.5 226.24,-213.68 217,-218.87 222.25,-223.5"/>
<text text-anchor="middle" x="228.26" y="-235.8" font-family="Times,serif" font-size="14.00">2&#39;b11</text>
</g>
<!-- s01&#45;&gt;error -->
<g id="edge10" class="edge">
<title>s01&#45;&gt;error</title>
<path fill="none" stroke="black" d="M267.89,-266.08C273.28,-260.95 278.47,-254.94 282,-248.4 308.49,-199.29 299.09,-180.38 304,-124.8 305.41,-108.86 307.95,-104.31 304,-88.8 300.03,-73.2 291.78,-57.32 283.99,-44.66"/>
<polygon fill="black" stroke="black" points="286.81,-42.57 278.45,-36.05 280.92,-46.36 286.81,-42.57"/>
<text text-anchor="middle" x="317.26" y="-147" font-family="Times,serif" font-size="14.00">2&#39;b10</text>
</g>
<!-- s11&#45;&gt;s01 -->
<g id="edge12" class="edge">
<title>s11&#45;&gt;s01</title>
<path fill="none" stroke="black" d="M248.21,-213.71C247.65,-225.83 246.89,-242.34 246.25,-256.24"/>
<polygon fill="black" stroke="black" points="242.75,-256.1 245.79,-266.25 249.75,-256.42 242.75,-256.1"/>
<text text-anchor="middle" x="262.26" y="-235.8" font-family="Times,serif" font-size="14.00">2&#39;b01</text>
</g>
<!-- s11&#45;&gt;s10 -->
<g id="edge11" class="edge">
<title>s11&#45;&gt;s10</title>
<path fill="none" stroke="black" d="M221.92,-184.92C209.35,-179.24 195.11,-170.92 185.48,-159.6 179.52,-152.6 175.43,-143.53 172.64,-134.95"/>
<polygon fill="black" stroke="black" points="176,-133.93 169.94,-125.24 169.25,-135.81 176,-133.93"/>
<text text-anchor="middle" x="200.26" y="-147" font-family="Times,serif" font-size="14.00">2&#39;b10</text>
</g>
<!-- s11&#45;&gt;error -->
<g id="edge13" class="edge">
<title>s11&#45;&gt;error</title>
<path fill="none" stroke="black" d="M257.25,-177.53C259.56,-171.95 261.77,-165.63 263,-159.6 270.91,-120.78 270,-74.68 268.27,-46.13"/>
<polygon fill="black" stroke="black" points="271.76,-45.84 267.58,-36.1 264.77,-46.31 271.76,-45.84"/>
<text text-anchor="middle" x="284.26" y="-102.6" font-family="Times,serif" font-size="14.00">2&#39;b00</text>
</g>
<!-- s10&#45;&gt;s00 -->
<g id="edge14" class="edge">
<title>s10&#45;&gt;s00</title>
<path fill="none" stroke="black" d="M165.97,-124.87C163.27,-169.48 155.98,-289.88 152.67,-344.54"/>
<polygon fill="black" stroke="black" points="149.16,-344.66 152.05,-354.85 156.15,-345.08 149.16,-344.66"/>
<text text-anchor="middle" x="174.26" y="-235.8" font-family="Times,serif" font-size="14.00">2&#39;b00</text>
</g>
<!-- s10&#45;&gt;s11 -->
<g id="edge15" class="edge">
<title>s10&#45;&gt;s11</title>
<path fill="none" stroke="black" d="M194.18,-124.43C201.72,-129.76 209.6,-136.05 216,-142.8 223.3,-150.49 229.91,-160.03 235.26,-168.81"/>
<polygon fill="black" stroke="black" points="232.31,-170.7 240.36,-177.58 238.36,-167.18 232.31,-170.7"/>
<text text-anchor="middle" x="243.26" y="-147" font-family="Times,serif" font-size="14.00">2&#39;b11</text>
</g>
<!-- s10&#45;&gt;error -->
<g id="edge16" class="edge">
<title>s10&#45;&gt;error</title>
<path fill="none" stroke="black" d="M186.56,-88.65C201.47,-75.57 222.2,-57.4 238.74,-42.9"/>
<polygon fill="black" stroke="black" points="241.27,-45.34 246.48,-36.11 236.65,-40.07 241.27,-45.34"/>
<text text-anchor="middle" x="240.26" y="-58.2" font-family="Times,serif" font-size="14.00">2&#39;b01</text>
</g>
</g>
</svg>
