<?xml version="1.0" encoding="UTF-8" standalone="no"?>
<!DOCTYPE svg PUBLIC "-//W3C//DTD SVG 1.1//EN"
 "http://www.w3.org/Graphics/SVG/1.1/DTD/svg11.dtd">
<!-- Generated by graphviz version 2.50.0 (20211209.1537)
 -->
<!-- Title: g Pages: 1 -->
<svg width="290pt" height="399pt"
 viewBox="0.00 0.00 289.52 399.20" xmlns="http://www.w3.org/2000/svg" xmlns:xlink="http://www.w3.org/1999/xlink">
<g id="graph0" class="graph" transform="scale(1 1) rotate(0) translate(4 395.2)">
<title>g</title>
<polygon fill="white" stroke="transparent" points="-4,4 -4,-395.2 285.52,-395.2 285.52,4 -4,4"/>
<!-- s00 -->
<g id="node1" class="node">
<title>s00</title>
<path fill="none" stroke="black" d="M193,-391.2C193,-391.2 163,-391.2 163,-391.2 157,-391.2 151,-385.2 151,-379.2 151,-379.2 151,-367.2 151,-367.2 151,-361.2 157,-355.2 163,-355.2 163,-355.2 193,-355.2 193,-355.2 199,-355.2 205,-361.2 205,-367.2 205,-367.2 205,-379.2 205,-379.2 205,-385.2 199,-391.2 193,-391.2"/>
<text text-anchor="middle" x="178" y="-369" font-family="Times,serif" font-size="14.00">s00</text>
</g>
<!-- s01 -->
<g id="node2" class="node">
<title>s01</title>
<path fill="none" stroke="black" d="M139,-302.4C139,-302.4 109,-302.4 109,-302.4 103,-302.4 97,-296.4 97,-290.4 97,-290.4 97,-278.4 97,-278.4 97,-272.4 103,-266.4 109,-266.4 109,-266.4 139,-266.4 139,-266.4 145,-266.4 151,-272.4 151,-278.4 151,-278.4 151,-290.4 151,-290.4 151,-296.4 145,-302.4 139,-302.4"/>
<text text-anchor="middle" x="124" y="-280.2" font-family="Times,serif" font-size="14.00">s01</text>
</g>
<!-- s00&#45;&gt;s01 -->
<g id="edge1" class="edge">
<title>s00&#45;&gt;s01</title>
<path fill="none" stroke="black" d="M150.83,-360.7C141.08,-355.11 131.1,-347.36 125.48,-337.2 121.43,-329.9 120.13,-321.08 120.1,-312.81"/>
<polygon fill="black" stroke="black" points="123.6,-312.95 120.65,-302.77 116.61,-312.57 123.6,-312.95"/>
<text text-anchor="middle" x="141.26" y="-324.6" font-family="Times,serif" font-size="14.00">2&#39;b01</text>
</g>
<!-- s10 -->
<g id="node4" class="node">
<title>s10</title>
<path fill="none" stroke="black" d="M207,-124.8C207,-124.8 177,-124.8 177,-124.8 171,-124.8 165,-118.8 165,-112.8 165,-112.8 165,-100.8 165,-100.8 165,-94.8 171,-88.8 177,-88.8 177,-88.8 207,-88.8 207,-88.8 213,-88.8 219,-94.8 219,-100.8 219,-100.8 219,-112.8 219,-112.8 219,-118.8 213,-124.8 207,-124.8"/>
<text text-anchor="middle" x="192" y="-102.6" font-family="Times,serif" font-size="14.00">s10</text>
</g>
<!-- s00&#45;&gt;s10 -->
<g id="edge2" class="edge">
<title>s00&#45;&gt;s10</title>
<path fill="none" stroke="black" d="M191.19,-354.87C194.65,-349.48 197.97,-343.33 200,-337.2 224.9,-262.04 210.89,-238.72 214,-159.6 214.29,-152.14 216.07,-149.97 214,-142.8 213.13,-139.79 211.92,-136.8 210.51,-133.89"/>
<polygon fill="black" stroke="black" points="213.47,-132.01 205.5,-125.03 207.38,-135.46 213.47,-132.01"/>
<text text-anchor="middle" x="230.26" y="-235.8" font-family="Times,serif" font-size="14.00">2&#39;b10</text>
</g>
<!-- err -->
<g id="node5" class="node">
<title>err</title>
<path fill="none" stroke="black" d="M97,-36C97,-36 67,-36 67,-36 61,-36 55,-30 55,-24 55,-24 55,-12 55,-12 55,-6 61,0 67,0 67,0 97,0 97,0 103,0 109,-6 109,-12 109,-12 109,-24 109,-24 109,-30 103,-36 97,-36"/>
<text text-anchor="middle" x="82" y="-13.8" font-family="Times,serif" font-size="14.00">err</text>
</g>
<!-- s00&#45;&gt;err -->
<g id="edge3" class="edge">
<title>s00&#45;&gt;err</title>
<path fill="none" stroke="black" d="M150.97,-371.07C101.17,-367.39 0,-351.76 0,-285.4 0,-285.4 0,-285.4 0,-105.8 0,-77.07 24.04,-54 46.08,-38.89"/>
<polygon fill="black" stroke="black" points="48.21,-41.68 54.7,-33.3 44.4,-35.81 48.21,-41.68"/>
<text text-anchor="middle" x="15.26" y="-191.4" font-family="Times,serif" font-size="14.00">2&#39;b11</text>
</g>
<!-- s01&#45;&gt;s00 -->
<g id="edge5" class="edge">
<title>s01&#45;&gt;s00</title>
<path fill="none" stroke="black" d="M141.86,-302.6C146.85,-307.99 151.99,-314.17 156,-320.4 161.01,-328.2 165.33,-337.33 168.78,-345.74"/>
<polygon fill="black" stroke="black" points="165.55,-347.09 172.42,-355.15 172.08,-344.56 165.55,-347.09"/>
<text text-anchor="middle" x="180.26" y="-324.6" font-family="Times,serif" font-size="14.00">2&#39;b00</text>
</g>
<!-- s11 -->
<g id="node3" class="node">
<title>s11</title>
<path fill="none" stroke="black" d="M153,-213.6C153,-213.6 123,-213.6 123,-213.6 117,-213.6 111,-207.6 111,-201.6 111,-201.6 111,-189.6 111,-189.6 111,-183.6 117,-177.6 123,-177.6 123,-177.6 153,-177.6 153,-177.6 159,-177.6 165,-183.6 165,-189.6 165,-189.6 165,-201.6 165,-201.6 165,-207.6 159,-213.6 153,-213.6"/>
<text text-anchor="middle" x="138" y="-191.4" font-family="Times,serif" font-size="14.00">s11</text>
</g>
<!-- s01&#45;&gt;s11 -->
<g id="edge4" class="edge">
<title>s01&#45;&gt;s11</title>
<path fill="none" stroke="black" d="M115.68,-266.38C111.8,-256.17 108.77,-242.99 112.48,-231.6 113.5,-228.45 114.93,-225.36 116.59,-222.38"/>
<polygon fill="black" stroke="black" points="119.58,-224.2 122.1,-213.91 113.71,-220.38 119.58,-224.2"/>
<text text-anchor="middle" x="128.26" y="-235.8" font-family="Times,serif" font-size="14.00">2&#39;b11</text>
</g>
<!-- s01&#45;&gt;err -->
<g id="edge6" class="edge">
<title>s01&#45;&gt;err</title>
<path fill="none" stroke="black" d="M114.7,-266.3C111.93,-260.71 109.08,-254.4 107,-248.4 82.77,-178.62 80.47,-90.36 81.08,-46.44"/>
<polygon fill="black" stroke="black" points="84.59,-46.33 81.29,-36.26 77.59,-46.19 84.59,-46.33"/>
<text text-anchor="middle" x="103.26" y="-147" font-family="Times,serif" font-size="14.00">2&#39;b10</text>
</g>
<!-- s11&#45;&gt;s01 -->
<g id="edge8" class="edge">
<title>s11&#45;&gt;s01</title>
<path fill="none" stroke="black" d="M142.54,-213.62C144.56,-223.84 145.89,-237.02 143,-248.4 142.24,-251.39 141.17,-254.39 139.92,-257.32"/>
<polygon fill="black" stroke="black" points="136.78,-255.79 135.47,-266.3 143.05,-258.89 136.78,-255.79"/>
<text text-anchor="middle" x="160.26" y="-235.8" font-family="Times,serif" font-size="14.00">2&#39;b01</text>
</g>
<!-- s11&#45;&gt;s10 -->
<g id="edge7" class="edge">
<title>s11&#45;&gt;s10</title>
<path fill="none" stroke="black" d="M134.65,-177.23C133.51,-166.64 133.72,-153.19 139.48,-142.8 143.43,-135.66 149.54,-129.7 156.21,-124.86"/>
<polygon fill="black" stroke="black" points="158.32,-127.66 164.83,-119.3 154.53,-121.77 158.32,-127.66"/>
<text text-anchor="middle" x="155.26" y="-147" font-family="Times,serif" font-size="14.00">2&#39;b10</text>
</g>
<!-- s11&#45;&gt;err -->
<g id="edge9" class="edge">
<title>s11&#45;&gt;err</title>
<path fill="none" stroke="black" d="M132.53,-177.44C122.78,-146.89 102.35,-82.83 90.68,-46.21"/>
<polygon fill="black" stroke="black" points="93.87,-44.69 87.49,-36.23 87.2,-46.82 93.87,-44.69"/>
<text text-anchor="middle" x="131.26" y="-102.6" font-family="Times,serif" font-size="14.00">2&#39;b00</text>
</g>
<!-- s10&#45;&gt;s00 -->
<g id="edge10" class="edge">
<title>s10&#45;&gt;s00</title>
<path fill="none" stroke="black" d="M213.6,-125C218.98,-130.22 224.27,-136.3 228,-142.8 234.91,-154.83 256.98,-210.62 250,-248.4 242.32,-289.96 239.72,-302.23 216,-337.2 213.56,-340.79 210.69,-344.27 207.64,-347.56"/>
<polygon fill="black" stroke="black" points="204.93,-345.32 200.29,-354.84 209.86,-350.29 204.93,-345.32"/>
<text text-anchor="middle" x="266.26" y="-235.8" font-family="Times,serif" font-size="14.00">2&#39;b00</text>
</g>
<!-- s10&#45;&gt;s11 -->
<g id="edge11" class="edge">
<title>s10&#45;&gt;s11</title>
<path fill="none" stroke="black" d="M186.42,-124.85C182.6,-135.32 176.97,-148.75 170,-159.6 167.81,-163.01 165.28,-166.4 162.62,-169.66"/>
<polygon fill="black" stroke="black" points="159.8,-167.56 155.86,-177.4 165.07,-172.17 159.8,-167.56"/>
<text text-anchor="middle" x="194.26" y="-147" font-family="Times,serif" font-size="14.00">2&#39;b11</text>
</g>
<!-- s10&#45;&gt;err -->
<g id="edge12" class="edge">
<title>s10&#45;&gt;err</title>
<path fill="none" stroke="black" d="M170.27,-88.65C153.47,-75.4 130.04,-56.91 111.54,-42.31"/>
<polygon fill="black" stroke="black" points="113.71,-39.56 103.69,-36.11 109.37,-45.06 113.71,-39.56"/>
<text text-anchor="middle" x="162.26" y="-58.2" font-family="Times,serif" font-size="14.00">2&#39;b01</text>
</g>
</g>
</svg>
